<?xml version="1.0" standalone="no"?>
<!DOCTYPE svg PUBLIC "-//W3C//DTD SVG 20010904//EN"
 "http://www.w3.org/TR/2001/REC-SVG-20010904/DTD/svg10.dtd">
<svg version="1.0" xmlns="http://www.w3.org/2000/svg"
 width="512.000000pt" height="512.000000pt" viewBox="0 0 512.000000 512.000000"
 preserveAspectRatio="xMidYMid meet">
<metadata>
Created by potrace 1.11, written by Peter Selinger 2001-2013
</metadata>
<g transform="translate(0.000000,512.000000) scale(0.100000,-0.100000)"
fill="#000000" stroke="none">
<path d="M2379 5116 c-2 -2 -35 -6 -74 -10 -61 -5 -187 -24 -280 -42 -41 -7
-167 -41 -240 -64 -291 -90 -585 -247 -835 -447 -213 -169 -469 -466 -596
-688 -141 -247 -252 -533 -298 -765 -44 -222 -51 -299 -50 -550 0 -182 4 -267
19 -350 2 -14 6 -41 9 -60 5 -31 17 -93 30 -157 52 -245 196 -586 339 -803 87
-132 109 -163 183 -252 177 -214 415 -419 659 -565 98 -59 326 -173 345 -173
6 0 18 -4 28 -10 82 -45 363 -121 557 -151 157 -24 489 -33 635 -17 97 11 152
18 180 24 14 2 41 7 60 10 126 21 396 104 515 158 137 63 215 102 271 136 36
22 70 40 75 40 5 0 9 5 9 10 0 6 5 10 10 10 19 0 198 130 295 214 351 305 594
661 755 1108 32 90 78 259 86 317 2 18 6 36 8 40 6 9 18 93 33 226 12 109 9
480 -6 575 -71 472 -222 851 -479 1199 -131 179 -319 370 -495 505 -61 48
-117 91 -124 96 -7 6 -15 10 -18 10 -3 0 -32 17 -63 38 -182 123 -540 276
-742 317 -8 2 -46 10 -85 19 -38 8 -87 18 -107 21 -21 3 -53 7 -70 10 -18 3
-51 7 -73 11 -44 6 -460 15 -466 10z"/>
</g>
</svg>
