<?xml version="1.0" standalone="no"?>
<!DOCTYPE svg PUBLIC "-//W3C//DTD SVG 20010904//EN"
 "http://www.w3.org/TR/2001/REC-SVG-20010904/DTD/svg10.dtd">
<svg version="1.0" xmlns="http://www.w3.org/2000/svg"
 width="512.000000pt" height="512.000000pt" viewBox="0 0 512.000000 512.000000"
 preserveAspectRatio="xMidYMid meet">
<metadata>
Created by potrace 1.11, written by Peter Selinger 2001-2013
</metadata>
<g transform="translate(0.000000,512.000000) scale(0.100000,-0.100000)"
fill="#000000" stroke="none">
<path d="M2379 5116 c-2 -2 -35 -6 -74 -10 -61 -5 -187 -24 -280 -42 -41 -7
-167 -41 -240 -64 -291 -90 -585 -247 -835 -447 -213 -169 -469 -466 -596
-688 -141 -247 -252 -533 -298 -765 -44 -222 -51 -299 -50 -550 0 -182 4 -267
19 -350 2 -14 6 -41 9 -60 5 -31 17 -93 30 -157 52 -247 196 -588 342 -808 60
-91 105 -156 114 -165 3 -3 32 -39 65 -80 312 -390 827 -721 1315 -845 238
-60 397 -79 655 -80 169 0 311 8 370 20 11 3 36 7 55 10 211 31 467 111 683
214 673 319 1177 927 1369 1646 43 162 55 225 75 410 12 109 9 480 -6 575 -47
313 -119 556 -238 800 -183 375 -434 677 -785 944 -48 36 -90 66 -93 66 -4 0
-32 17 -63 38 -182 123 -540 276 -742 317 -8 2 -46 10 -85 19 -38 8 -87 18
-107 21 -21 3 -53 7 -70 10 -18 3 -51 7 -73 11 -44 6 -460 15 -466 10z"/>
</g>
</svg>
