<?xml version="1.0" standalone="no"?>
<!DOCTYPE svg PUBLIC "-//W3C//DTD SVG 20010904//EN"
 "http://www.w3.org/TR/2001/REC-SVG-20010904/DTD/svg10.dtd">
<svg version="1.0" xmlns="http://www.w3.org/2000/svg"
 width="512.000000pt" height="512.000000pt" viewBox="0 0 512.000000 512.000000"
 preserveAspectRatio="xMidYMid meet">
<metadata>
Created by potrace 1.11, written by Peter Selinger 2001-2013
</metadata>
<g transform="translate(0.000000,512.000000) scale(0.100000,-0.100000)"
fill="#000000" stroke="none">
<path d="M2379 5116 c-2 -2 -35 -6 -74 -10 -61 -5 -187 -24 -280 -42 -38 -7
-195 -49 -255 -67 -205 -65 -502 -211 -660 -325 -119 -86 -152 -112 -215 -166
-104 -89 -249 -239 -335 -347 -68 -86 -176 -240 -206 -294 -6 -11 -31 -58 -56
-105 -104 -192 -203 -461 -242 -660 -44 -222 -51 -299 -50 -550 0 -182 4 -267
19 -350 2 -14 6 -41 9 -60 5 -31 17 -93 30 -157 66 -313 245 -694 453 -968
345 -452 857 -797 1383 -930 238 -60 397 -79 655 -80 169 0 311 8 370 20 11 3
36 7 55 10 157 23 363 80 540 150 98 39 304 142 351 176 15 10 32 19 38 19 6
0 11 5 11 10 0 6 5 10 11 10 17 0 200 133 289 210 350 300 601 667 759 1111
30 83 81 273 96 354 4 22 9 49 11 60 4 24 11 77 21 170 12 109 9 480 -6 575
-47 313 -119 556 -238 800 -182 374 -435 678 -785 944 -48 36 -90 66 -93 66
-2 0 -35 20 -72 44 -203 130 -532 270 -733 311 -8 2 -46 10 -85 19 -38 8 -87
18 -107 21 -21 3 -53 7 -70 10 -18 3 -51 7 -73 11 -44 6 -460 15 -466 10z"/>
</g>
</svg>
